<?xml version="1.0" encoding="UTF-8" standalone="yes"?>
<svg version="1.2" width="3000px" height="3000px" viewBox="0 0 3000 3000" preserveAspectRatio="xMidYMid meet" baseProfile="tiny-ps" xmlns="http://www.w3.org/2000/svg">
  <title>bimi-svg-tiny-12-ps</title>
  <g fill="#ffffff">
    <path d="M 0 1500 l 0 -1500 1500 0 1500 0 0 1500 0 1500 -1500 0 -1500 0 0 -1500 z "/>
  </g>
  <g fill="#000000">
    <path d="M 1826 2231.4 c -34.6 -3 -55.1 -6.8 -80.5 -15 -34.3 -11.1 -62.2 -26.9 -87.5 -49.4 -6.7 -6 -7.8 -6.6 -10.5 -6 -22.7 5.2 -90.1 19.3 -114.5 23.9 -67.2 12.8 -114.1 19.6 -167 24.3 -22.6 2 -80.3 1.7 -96.5 -0.5 -42.6 -5.9 -70.4 -17.2 -89.6 -36.6 -8.7 -8.9 -17.1 -21.9 -19.9 -31 -6.9 -22.3 6.1 -44.3 34.1 -57.6 12.5 -5.9 21.4 -7.8 36.9 -7.8 19 0 31.2 3 47.5 11.7 12.1 6.4 17.6 10.9 32.9 27.1 20 21.1 32.9 29 58.1 35.5 20.6 5.4 31.7 6.5 66.5 6.4 33.2 0 47 -1 84 -6 28.7 -3.8 87.4 -14.4 103.2 -18.5 3.7 -1 3.7 -1 0.3 -6.4 -5.2 -8 -12.8 -23.7 -16.8 -34.5 -7.6 -20.5 -11.5 -41.7 -12.4 -67.8 -0.4 -12 -0.9 -17.2 -1.7 -16.8 -0.6 0.2 -5.3 2.3 -10.4 4.5 -37 16.3 -76 23.2 -112.7 20.2 -32.3 -2.7 -56.1 -8.8 -80 -20.6 -27.9 -13.7 -45.4 -32.1 -52.4 -55 -3.1 -10.3 -3.4 -27.6 -0.7 -37.4 7.5 -27.4 31.6 -49.2 67.5 -61.1 23.7 -7.9 41.7 -10.2 80.1 -10.2 38.1 -0.1 72 3.2 99.8 9.6 l 10.4 2.3 -0.5 -36.6 c -0.5 -38.9 -0.8 -42.1 -6 -56.3 -7.3 -20.2 -22.1 -33 -41.7 -35.9 -16.7 -2.6 -42.2 1.1 -56.1 8.1 -26.9 13.5 -42.4 36.7 -51.8 77.7 -1.5 6.7 -3.5 13.3 -4.4 14.7 -0.9 1.4 -3.8 3.8 -6.4 5.3 -4.2 2.4 -5.8 2.8 -12.9 2.8 -7.1 0 -8.5 -0.3 -12.2 -2.8 -2.3 -1.5 -5.3 -4.5 -6.7 -6.6 -1.5 -2.1 -6.9 -17.5 -12.6 -35.1 -8.1 -25.4 -9.8 -31.9 -9.3 -34.9 1.8 -9.8 10 -19.6 24.1 -28.8 24 -15.7 58.9 -25.9 104.3 -30.5 18.8 -1.9 60.6 -1.6 76.5 0.6 75.2 10.2 122.7 41 138.5 89.8 5.5 17.1 5.3 11.7 6 143.3 0.6 102.5 0.9 124.2 2.3 136 2.1 18 4.7 34.9 5.7 36.5 0.6 1 3.9 0.7 15.6 -1.3 91.8 -16 168 -11.5 209.9 12.4 4.3 2.4 11.5 7.9 16 12.1 12.7 12 18.3 24.5 17.3 38.7 -2.1 29.3 -43.9 53.6 -105.8 61.6 -11.9 1.5 -48.5 2.7 -58 1.9 z  m -1.8 -32.3 c 15.5 -4 29.7 -13.6 37 -25.1 6.4 -10 5.8 -17.4 -2 -26.1 -14 -15.6 -44.8 -18.7 -100.7 -10.2 -9.3 1.4 -17.2 2.7 -17.4 2.9 -0.8 0.7 7.2 17.4 12 25.2 17.4 28.1 43.5 40.3 71.1 33.3 z  M1599.2 1936.4 C 1599.2 1902.8 1571.9 1875.6 1538.3 1875.6 1504.7 1875.6 1477.5 1902.8 1477.5 1936.4 1477.5 1970 1504.7 1997.3 1538.3 1997.3 1571.9 1997.3 1599.2 1970 1599.2 1936.4 Z M1544 1990 "/>
    <path d="M 1042.2 2025.1 c -9.3 -3.2 -15.2 -11.2 -13.8 -18.3 1.2 -6 4.2 -9.1 14 -14.7 12.4 -7 20.3 -13.4 24.1 -19.5 3 -4.9 3 -4.9 3.3 -175.3 l 0.2 -170.4 -9.7 0.6 c -59.2 3.7 -94.4 15.7 -114 38.8 -12.9 15.2 -16.6 35.9 -12.4 68.3 2.5 19.1 2.6 27 0.6 34.9 -6.2 23.7 -30.4 42.6 -60.9 47.5 -10.7 1.8 -31.9 0.8 -42.1 -1.9 -20 -5.3 -37.7 -17.5 -45.9 -31.6 -3.8 -6.5 -7.4 -18.2 -8.5 -27.8 -4.6 -40.3 21.5 -82.3 69 -110.9 37.5 -22.7 90.6 -38.5 151.9 -45.2 32.7 -3.7 42.8 -4 117 -4.1 64.3 -0.2 75.8 -0.4 84.2 -1.8 20.3 -3.5 32.2 -9.7 36.8 -19.2 2.2 -4.5 2.8 -11.6 1.5 -17.7 -1.1 -5.2 -7.1 -15.8 -12.5 -22.1 -2.8 -3.2 -5 -6.5 -5 -7.3 0 -3.2 6.6 -8.5 15.6 -12.4 20 -8.5 41 -12.1 59.4 -10 33 3.7 55.5 21.1 56.8 44.2 0.6 9.6 -1.3 15.7 -7.4 25 -18.1 27.2 -65.5 45.8 -130.1 51 l -15.3 1.2 0 171.5 c 0 171.5 0 171.5 2.1 175.9 2.8 5.7 9.8 11.2 21.8 16.8 10 4.8 14.3 8 16.7 12.6 3.6 6.9 -0.2 15.6 -8.8 20.4 -5.3 2.9 -5.3 2.9 -94.3 3.1 -84.4 0.2 -89.3 0.2 -94.3 -1.6 z "/>
    <path d="M 1832.3 2026.1 c -16.9 -4.2 -21.8 -21.7 -8.5 -30.7 1.6 -1.1 9.8 -4.4 18.2 -7.3 18.5 -6.4 28.1 -10.7 37.1 -16.7 4.4 -2.9 20.7 -18 44.2 -41 20.5 -20 37.3 -36.8 37.5 -37.3 0.5 -1.4 -92.4 -130.1 -98.1 -136 -7.1 -7.3 -11.9 -10.5 -28.2 -18.6 -15.9 -7.9 -18.5 -10.5 -18.5 -18.2 0 -8 5.2 -14.1 14.6 -16.9 7.3 -2.2 185.8 -2.1 193.2 0.1 15.9 4.8 19.4 21.7 6.2 30.2 -12.1 7.7 -14.4 10.6 -14.2 18.1 0 5.9 2.3 9.9 19.1 33.7 l 14.4 20.4 9.6 -8.9 c 5.3 -4.8 16.7 -16 25.3 -24.8 16.2 -16.4 19.7 -21.4 19.8 -28 0 -3.5 -1.3 -5 -10.9 -13.1 -7.7 -6.3 -7.7 -15.6 -0.1 -22.5 7.3 -6.6 9 -6.7 61.7 -6.4 45.8 0.3 46.9 0.3 50.8 2.5 6.9 3.7 11.5 9.9 11.5 15.5 0 1.2 -0.9 4.1 -2.1 6.5 -2.8 5.7 -6.9 8 -25.4 14.3 -18.1 6.2 -29.7 11.7 -38.6 18.5 -3.7 2.7 -23.2 21.1 -43.3 40.9 -36.6 35.9 -36.6 35.9 -34.3 39 1.3 1.7 22.3 30.8 46.6 64.6 53.2 74 52.3 73 75.8 84.7 16.2 8 19.3 10.5 20.9 17 1.6 6.4 -3.1 14.4 -11 18.6 -4.1 2.2 -4.1 2.2 -99.6 2.2 -95.5 0 -95.5 0 -100.4 -2.5 -7.2 -3.6 -11 -8.8 -11 -14.8 0 -6.1 2.8 -10.8 8.4 -14.2 8.9 -5.4 10.5 -6.7 12.7 -9.9 3 -4.4 3 -10.2 -0.1 -16.6 -2.6 -5.6 -31.1 -45 -32.5 -45 -0.5 0 -10.8 9.6 -22.9 21.3 -22.4 21.5 -29.5 30.2 -30.8 36.9 -1 5.3 0.5 8.3 6.3 12.3 7.1 4.9 9.5 8.3 10 13.9 0.5 6.5 -2.6 11.5 -9.7 15.5 -5.5 3.1 -5.5 3.1 -53 3.3 -26.1 0.1 -48.9 -0.2 -50.7 -0.6 z "/>
    <path d="M 2423.7 1473.5 c -32 -5.2 -57.9 -20.3 -70 -40.7 -5.3 -9 -7.2 -15.7 -7.2 -26.3 0 -5.7 0.7 -11 1.7 -14.5 3.7 -12 14.5 -25.6 26.7 -33.9 6.7 -4.6 19.4 -11.1 21.6 -11.1 0.9 0 2.6 -0.6 3.8 -1.4 1.2 -0.8 6 -2.3 10.7 -3.5 36.2 -8.7 74.5 -2.8 102 15.9 12.2 8.3 23.2 22.3 26.8 34 2.2 7.3 2.2 21.7 0 29 -1 3 -3.4 8.3 -5.5 11.8 -4.7 7.8 -17.8 22.2 -20.2 22.2 -1 0 -3.6 1.6 -5.8 3.5 -2.3 1.9 -4.9 3.5 -5.7 3.5 -2.1 0 -9.4 3.7 -12.1 6 -1.2 1.1 -4.3 2 -8 2.3 -3.3 0.3 -8 1.2 -10.5 2.1 -6.6 2.3 -36.6 3 -48.3 1.1 z "/>
    <path d="M 1459.8 1455.9 c -21.2 -3.1 -39 -12.8 -48.3 -26.3 -4 -5.8 -4 -5.8 -3.7 -87.7 l 0.3 -81.9 -22.5 0 c -32.1 0 -33.7 2.7 21.8 -38 26 -19.1 45.4 -32.6 47 -32.8 2.6 -0.3 2.6 -0.3 2.6 20.7 l 0 21.1 56.9 0.2 56.9 0.3 -9.4 14.3 -9.3 14.2 -47.1 0 -47.1 0 0.3 68.3 c 0.4 67.4 0.4 68.3 2.6 74.7 6 17.7 20.4 26.7 44.2 27.7 19.8 0.9 36.2 -3.9 47.2 -13.6 4.6 -4.1 7.8 -5.3 7.8 -2.8 0 2.4 -9.6 15.1 -15.2 20.2 -9.6 8.7 -21.3 14.7 -36.2 18.5 -14.2 3.6 -35.4 4.9 -48.8 2.9 z "/>
    <path d="M 2171.5 1455.8 c -64.2 -7.2 -111.5 -41 -124.3 -88.7 -2.2 -8.4 -2.5 -11.7 -2.6 -26.1 -0.1 -14.4 0.2 -17.5 2.2 -24.4 5.1 -17.8 14 -32.5 28.2 -46.7 46.9 -47 133.6 -57.6 198.1 -24.2 19.9 10.2 35.6 24.1 46.9 41.4 9.2 14 13.5 27.3 14.6 45.4 1.9 30 -9.1 57 -33.1 81.1 -31.7 31.8 -80.8 47.8 -130 42.2 z  M2289.2 1342.9 C 2289.2 1287.7 2244.5 1243 2189.3 1243 2134.2 1243 2089.4 1287.7 2089.4 1342.9 2089.4 1398.1 2134.2 1442.8 2189.3 1442.8 2244.5 1442.8 2289.2 1398.1 2289.2 1342.9 Z M2211.8 1448.6 "/>
    <path d="M 665 1453.6 c 0 -2.1 0.6 -2.4 5.6 -3.1 8.8 -1.1 28.5 -6.1 34.7 -8.9 16.8 -7.4 20.3 -13.3 24.3 -41.1 1.6 -10.8 1.8 -23.5 1.8 -128.5 0.1 -110.1 0 -116.9 -1.7 -123 -2.6 -9.1 -4.8 -12.2 -12.5 -17.4 -8.2 -5.5 -20.6 -9.8 -36.2 -12.4 -10.3 -1.7 -11.5 -2.1 -11.8 -4 -0.3 -2.2 -0.3 -2.2 98.2 -2.2 98.6 0 98.6 0 98.6 2.3 0 2.2 -0.6 2.5 -8.7 3.6 -28.7 3.9 -46 12.7 -52.9 26.7 -2.2 4.6 -2.8 7.4 -3.5 18.7 -1.5 22.9 -2.2 171.8 -1 213.7 1.5 50.8 2.7 56.4 13.1 60.9 18.2 7.8 58.7 11.5 102 9.2 62.3 -3.4 91.6 -11.7 120.2 -34.2 13.2 -10.4 22.2 -21.9 34.6 -44 6.8 -12.2 8.8 -14.2 11.9 -12.1 0.9 0.6 -1.7 13.2 -10 49.2 l -11.3 48.5 -197.7 0.3 c -197.7 0.2 -197.7 0.2 -197.7 -2.2 z "/>
    <path d="M 1151 1455.3 c -13.5 -1.6 -24.4 -6.1 -32.6 -13.6 -9.6 -8.7 -13.4 -17.2 -13.4 -29.6 0 -13.1 8.9 -24.9 29 -38.1 14.3 -9.4 51.3 -27 95.5 -45.5 l 22 -9.2 0.3 -24.7 c 0.3 -27.2 0.1 -28 -6.2 -33.9 -4.4 -4.2 -15.9 -9.5 -24.6 -11.3 -9.1 -1.9 -27.5 -1.4 -36.5 1 -9.9 2.7 -23.8 10.1 -28.9 15.6 -4.6 4.9 -4.6 4.9 -4.6 17.5 0 14.8 -0.7 16.9 -7.7 21.3 -6.8 4.3 -11.7 5.6 -20.3 5.6 -6.4 0 -8.4 -0.5 -12.9 -2.9 -7.6 -4.2 -10.6 -8.5 -10.5 -15.1 0 -4.1 0.6 -6.1 2.9 -9.4 5.7 -8.2 15.1 -13.6 49.1 -28 46.5 -19.7 83.7 -30.2 101.8 -28.7 20.4 1.8 41.1 12.7 46.4 24.5 1.5 3.4 1.7 10.3 1.7 76.7 0 40.2 0.4 74.6 0.9 76.5 2.1 8.7 7 14.4 15.6 18.3 3.6 1.7 6.6 2.1 15.5 2.1 6.9 0.1 12.4 -0.4 14.9 -1.3 4.5 -1.6 11.1 -7.2 13.2 -11.3 0.8 -1.5 2.2 -2.8 3.1 -2.8 2.4 0 1 7.1 -3.2 15.6 -6.6 13.5 -20.6 24.6 -36.5 29 -8.9 2.5 -29.9 2.5 -38.9 0 -15 -4.1 -25.1 -10.8 -29.6 -19.5 -2.4 -4.9 -4.5 -13.3 -4.5 -18.1 0 -1.7 -0.2 -3 -0.5 -3 -0.3 0 -4.6 4 -9.6 9 -9 8.9 -20.5 17.3 -30.9 22.5 -17.4 8.8 -40.9 13 -60 10.8 z  m 69.2 -31.7 c 12.8 -2.8 27 -11.2 30.2 -17.9 1.4 -3.1 1.6 -8.3 1.6 -41.1 0 -20.7 -0.4 -37.6 -0.8 -37.6 -0.5 0 -4.2 1.6 -8.3 3.6 -4.1 2 -14.1 6.6 -22.4 10.1 -41.7 18.1 -62 32.1 -66 45.5 -1.9 6.5 -1.9 9.1 0 15.6 1.8 5.9 9.4 14.9 15.9 18.7 7.7 4.5 13.8 5.6 29.1 5 7.7 -0.2 17 -1.1 20.7 -1.9 z "/>
    <path d="M 1566 1453.6 c 0 -2.2 0.4 -2.3 9.3 -3 11 -0.8 20.3 -2.8 25.7 -5.6 7.5 -3.9 7 3.3 7 -91.7 0 -63.7 -0.3 -85.9 -1.2 -87.8 -1.4 -3.1 -12.9 -8.9 -26 -13.1 -5.1 -1.6 -8.8 -3.4 -8.8 -4.1 0 -0.7 0.3 -1.3 0.6 -1.3 0.3 0 19.1 -4.7 41.8 -10.5 22.7 -5.8 42 -10.5 42.9 -10.5 1.6 0 1.7 8.1 1.7 106.5 0 80.5 0.3 107 1.2 109 2.3 5.1 10.5 7.5 30.1 9.1 7.3 0.5 7.7 0.7 7.7 3 0 2.4 0 2.4 -66 2.4 -66 0 -66 0 -66 -2.4 z "/>
    <path d="M 1728 1453.6 c 0 -2.1 0.5 -2.4 6.3 -2.9 14.3 -1.3 24.7 -5.4 27.4 -10.7 1.6 -3.1 1.9 -169.3 0.4 -173.4 -1.1 -2.7 -9.1 -6.9 -24.3 -12.6 -8.5 -3.2 -10.7 -5.3 -7 -6.4 9.9 -3 79.4 -21.6 80.6 -21.6 1.4 0 1.6 2.9 1.6 26 0 15.1 0.4 26 0.9 26 0.5 0 2.4 -1.8 4.2 -4.1 4.7 -6 21 -20.2 29.8 -26 25.1 -16.6 54.4 -24.3 79.5 -21 31.1 4.2 50.6 20.9 58.8 50.6 2.2 7.9 2.2 9.1 2.6 86.1 0.3 78.1 0.3 78.1 2.5 80.1 3.4 3.1 9.6 5.1 19.3 6.3 15.6 2 15.4 1.9 15.4 4 0 2 -1.1 2 -62.5 2 -62.5 0 -62.5 0 -62.5 -2.4 0 -2.2 0.5 -2.5 5.8 -3.1 11.4 -1.1 20.8 -2.7 23.9 -4 6.7 -2.8 6.4 1.2 6.1 -76.1 -0.3 -69.9 -0.3 -69.9 -2.7 -76.9 -7.1 -21.3 -18.2 -31.6 -39.1 -36.1 -13.3 -2.8 -34.4 -1.3 -46.6 3.4 -6.3 2.3 -18.7 9.6 -27.7 16.3 l -6.7 4.9 0 79.6 c 0 79.6 0 79.6 3.3 82.9 3.6 3.6 8.7 5 22 6.1 7.3 0.5 7.7 0.7 7.7 3 0 2.4 0 2.4 -59.5 2.4 -59.5 0 -59.5 0 -59.5 -2.4 z "/>
    <path d="M 1620 1175.5 c -7.2 -2.1 -15.3 -7.5 -18.7 -12.6 -3.9 -6 -4.4 -15.6 -1.1 -21.8 5.1 -9.6 19.5 -15.9 33.3 -14.8 9.2 0.8 13.4 2.1 19.1 6 17.6 11.8 14 33.9 -6.9 41.9 -6.9 2.7 -18.6 3.2 -25.7 1.3 z "/>
    <path d="M 1268.5 1100.4 c -41.6 -3.1 -65.4 -7.2 -92.9 -16.1 -38.7 -12.5 -66.5 -28.9 -90.1 -53.4 -39.4 -40.8 -52.2 -97.4 -33.9 -150.2 12.9 -37 41.3 -71.2 77.4 -92.9 48.3 -29.1 115.5 -42.6 187.5 -37.8 39 2.7 80.6 12.8 109.7 26.7 8.3 3.9 12.3 5.4 14 5 3.2 -0.8 14 -9.1 20.9 -16.1 4.8 -4.7 6.2 -5.6 9.3 -5.6 3.6 0 3.6 0 3.6 53 0 53 0 53 -3.9 53 -3.7 0 -3.9 -0.2 -5.6 -4.8 -3.1 -8 -8.1 -17.4 -14.4 -26.8 -40.2 -59.6 -117.6 -88.8 -194.6 -73.3 -45.6 9.2 -85.9 37.1 -110.3 76.4 -24.9 40.3 -32.6 89.7 -20.8 134.7 17.1 65 72.9 110.6 146.6 119.8 12.4 1.5 42.1 1.2 55.3 -0.5 61.1 -8 118.6 -48.2 136.3 -95.3 3.2 -8.6 3.3 -8.7 6.9 -9 3.7 -0.3 3.7 -0.3 3.1 38.5 -0.4 21.3 -0.9 44.8 -1.2 52.1 -0.6 13.2 -0.6 13.2 -4.3 13.2 -3.2 0 -4.5 -0.8 -9.6 -6.1 -7.1 -7.2 -17.1 -14.9 -19.3 -14.9 -0.9 0 -6.8 2.4 -13.1 5.4 -22.4 10.5 -56 19.3 -87.6 23.1 -12.3 1.5 -57.9 2.7 -69 1.9 z "/>
    <path d="M 1484 1096.7 c 0 -2.2 0.8 -2.5 10.8 -4.5 8.2 -1.6 13.1 -3.3 21 -7.2 9.3 -4.6 10.9 -5.8 17.3 -13.3 9.4 -11 23.2 -31.8 37.2 -56.2 21.1 -37 67.3 -119.7 90.7 -162.4 12.8 -23.4 24.5 -44.9 26.2 -47.8 3 -5.3 3 -5.3 -0.2 -10.8 -2.1 -3.7 -2.7 -5.5 -1.8 -5.5 2.7 0 23.5 -11.1 30 -16 3.7 -2.8 10.5 -9.1 15.2 -14.1 6.4 -6.8 9 -9 10.7 -8.7 2.3 0.3 10.1 16.1 80.9 163.3 63.9 132.8 71.5 147.2 84.9 159.8 11.6 10.9 27.3 18.1 42.6 19.4 7.4 0.6 7.5 0.6 7.5 3.4 0 2.9 0 2.9 -89.5 2.9 -89.5 0 -89.5 0 -89.5 -2.3 0 -2.1 0.7 -2.3 8.3 -3.4 23.2 -3.2 35.8 -11.8 34.2 -23.2 -1.4 -9.8 -12 -35.2 -32.6 -78.3 l -11.3 -23.8 -82.1 0 -82.1 0 -3.6 6.8 c -16.4 31 -36.4 70.3 -39.2 77.3 -1.9 4.6 -4 11.2 -4.7 14.5 -1.1 5.5 -1 6.4 0.7 10 3.9 8 15.9 13.2 36.9 16 12 1.6 12.5 1.8 12.5 4.1 0 2.3 0 2.3 -65.5 2.3 -65.5 0 -65.5 0 -65.5 -2.3 z  m 287 -139.4 c 0 -0.8 -63.3 -126.2 -69.6 -137.9 -2.6 -4.7 -4.8 -8.4 -4.9 -8.2 -1.4 1.5 -65.8 121.5 -75.4 140.6 l -3.1 6.2 76.5 0 c 42.1 0 76.5 -0.3 76.5 -0.7 z "/>
  </g>
  <g fill="#fc672f">
    <path d="M 2423.7 1473.5 c -38.2 -6.2 -67.5 -26.6 -75.5 -52.5 -2.2 -7.3 -2.2 -21.7 0 -29 3.7 -12 14.5 -25.6 26.7 -33.9 6.7 -4.6 19.4 -11.1 21.6 -11.1 0.9 0 2.6 -0.6 3.8 -1.4 1.2 -0.8 6 -2.3 10.7 -3.5 36.2 -8.7 74.5 -2.8 102 15.9 12.2 8.3 23.2 22.3 26.8 34 2.2 7.3 2.2 21.7 0 29 -1 3 -3.4 8.3 -5.5 11.8 -4.7 7.8 -17.8 22.2 -20.2 22.2 -1 0 -3.6 1.6 -5.8 3.5 -2.3 1.9 -4.9 3.5 -5.7 3.5 -2.1 0 -9.4 3.7 -12.1 6 -1.2 1.1 -4.3 2 -8 2.3 -3.3 0.3 -8 1.2 -10.5 2.1 -6.6 2.3 -36.6 3 -48.3 1.1 z "/>
  </g>
</svg>